<mxfile host="app.diagrams.net" modified="2024-02-15T08:00:18.774Z" agent="Mozilla/5.0 (Windows NT 10.0; Win64; x64) AppleWebKit/537.36 (KHTML, like Gecko) Chrome/120.0.0.0 YaBrowser/24.1.0.0 Safari/537.36" version="22.1.21" etag="BRDn9oueb5keRtn1h-k9" type="github">
  <diagram name="Страница — 1" id="2EjfhrRVxZFZ72_2JJn5">
    <mxGraphModel>
      <root>
        <mxCell id="0" />
        <mxCell id="1" parent="0" />
      </root>
    </mxGraphModel>
  </diagram>
</mxfile>
